PathFileType	4	(X/Y/Z)	 s05c0303.trc
DataRate	CameraRate	NumFrames	NumMarkers	Units	OrigDataRate	OrigDataStartFrame	OrigNumFrames
200	200	6	48	mm	200	1751	2000
Frame#	Time	racr			lacr			c7			jug			rlel			rdr			llel			ldr			s2			lic			ric			lasi			rasi			rpsi			lpsi			rgt			lgt			rth1			rth2			rth3			rth4			rlfc			rsh1			rsh2			rsh3			rsh4			rlmal			rcal			rtoe			rmt5			rmt1			lth1			lth2			lth4			lth3			llfc			lmfc			lsh1			lsh2			lsh3			lsh4			llmal			lcal			ltoe			lmt5			SBIKE			LBIKE			RBIKE			
		X1	Y1	Z1	X2	Y2	Z2	X3	Y3	Z3	X4	Y4	Z4	X5	Y5	Z5	X6	Y6	Z6	X7	Y7	Z7	X8	Y8	Z8	X9	Y9	Z9	X10	Y10	Z10	X11	Y11	Z11	X12	Y12	Z12	X13	Y13	Z13	X14	Y14	Z14	X15	Y15	Z15	X16	Y16	Z16	X17	Y17	Z17	X18	Y18	Z18	X19	Y19	Z19	X20	Y20	Z20	X21	Y21	Z21	X22	Y22	Z22	X23	Y23	Z23	X24	Y24	Z24	X25	Y25	Z25	X26	Y26	Z26	X27	Y27	Z27	X28	Y28	Z28	X29	Y29	Z29	X30	Y30	Z30	X31	Y31	Z31	X32	Y32	Z32	X33	Y33	Z33	X34	Y34	Z34	X35	Y35	Z35	X36	Y36	Z36	X37	Y37	Z37	X38	Y38	Z38	X39	Y39	Z39	X40	Y40	Z40	X41	Y41	Z41	X42	Y42	Z42	X43	Y43	Z43	X44	Y44	Z44	X45	Y45	Z45	X46	Y46	Z46	X47	Y47	Z47	X48	Y48	Z48	
1751	8.7550	766.303251	1232.095977	-179.099718	724.820113	1241.493168	-471.210926	746.775888	1317.441333	-329.255013	667.881678	1165.601732	-318.280634	613.889015	1103.025854	36.428598	693.511051	913.331950	-57.883872	477.167925	1071.715616	-547.349624	671.807671	937.326311	-462.869261	163.580778	1261.364682	-208.481278	268.952094	1262.092832	-382.373560	336.225713	1225.429424	-107.923715	305.942333	1195.738607	-358.770809	351.901135	1159.633846	-145.720838	218.720444	1292.306010	-175.031969	201.925714	1309.694403	-257.490773	265.615326	1107.325605	-81.152905	181.063937	1184.869763	-404.219920	322.928700	1007.323221	-84.439062	377.988912	937.395766	-89.252077	389.095271	850.015648	-91.613571	408.343853	950.959584	-105.981852	431.738880	707.641258	-114.941107	337.390525	654.102678	-83.260621	287.121747	581.680746	-92.564407	211.109614	541.266089	-91.781600	306.603640	562.077021	-120.113549	109.929032	449.482808	-96.942478	56.155007	499.231975	-143.458447	126.518598	211.326333	-154.981508	73.669955	296.508829	-85.485738	NaN	NaN	NaN	260.370205	1066.902484	-447.836495	333.967542	1024.956603	-462.066235	362.414830	1048.437534	-453.184024	376.605773	946.420654	-475.964682	465.870024	822.026784	-461.380686	483.267190	807.221339	-351.253499	389.729104	712.825534	-468.810018	374.872934	627.500466	-456.244878	317.037980	561.198145	-444.201741	407.803331	615.809774	-439.382507	272.006201	453.514940	-429.152650	207.219811	424.668777	-382.869661	487.233416	343.747504	-396.176446	374.918124	336.173755	-457.407147	-167.264302	901.317683	-269.296522	-43.326377	85.137682	-474.043684	-51.357304	80.352264	-76.482036	
1752	8.7600	766.477378	1233.723158	-178.157321	725.745986	1239.641370	-470.918727	746.847957	1317.346643	-329.221019	668.963969	1164.977722	-317.272408	613.882986	1103.287363	36.059993	693.544007	913.113581	-57.932214	476.991671	1070.870178	-547.783713	671.679640	937.287517	-462.749354	163.962314	1260.707111	-201.274432	269.242269	1258.809188	-383.662982	335.686725	1225.601459	-108.669325	306.259618	1192.760284	-359.076018	351.012106	1159.306874	-146.283858	217.965141	1291.361715	-176.310495	201.296772	1307.497743	-258.979455	268.020795	1107.793168	-79.173938	180.609242	1181.286665	-404.536037	324.331755	1007.851987	-83.773686	380.997828	939.020463	-87.572350	393.825360	851.901129	-90.346889	410.812698	953.237348	-105.085913	438.308920	710.612506	-114.827924	343.047471	658.355719	-83.122491	291.470868	587.016422	-92.615923	214.577292	548.160015	-92.186428	310.613164	567.064637	-120.176618	111.807972	459.353196	-97.002253	58.615856	509.882641	-143.406884	125.321300	220.990734	-154.968282	73.640442	307.001159	-85.375966	NaN	NaN	NaN	258.847497	1061.827184	-447.201101	331.610662	1018.465684	-460.957724	360.387805	1042.084308	-453.351517	372.943281	939.096550	-473.989141	460.560422	814.165239	-458.844899	476.665000	799.186193	-349.408201	385.164570	704.650589	-467.394282	371.723299	619.052164	-455.586633	314.951207	551.648557	-444.291140	404.816481	607.600545	-438.934576	271.851838	442.087301	-429.583935	206.961936	412.717668	-383.479059	487.666347	333.284779	-395.988272	375.452010	325.093103	-457.382114	-167.354769	901.402699	-269.214899	-43.296877	85.143925	-474.024582	-51.339884	80.322473	-76.485466	
1753	8.7650	766.774676	1234.924280	-177.376975	726.889864	1237.918417	-470.435985	747.322874	1317.603382	-329.336109	670.078874	1164.603494	-316.140651	613.588822	1103.513255	35.601455	693.484450	912.951030	-57.977462	477.068597	1070.370628	-548.565308	671.493344	937.260238	-462.722979	163.423106	1259.159551	-202.484370	269.600353	1255.568765	-385.033851	334.945336	1225.620910	-109.580009	306.896051	1189.875592	-359.828531	350.178337	1159.070209	-146.725715	217.066455	1290.240672	-177.857775	200.782242	1305.230297	-260.853960	267.652782	1107.832782	-78.873269	180.570647	1177.547198	-405.098162	325.475264	1008.081247	-82.706422	384.056183	940.729629	-87.207859	398.427445	853.778852	-89.434433	413.243548	955.510652	-103.911801	444.738262	713.700933	-114.575069	348.744591	662.932477	-82.917052	295.772517	592.745615	-92.519969	217.950856	555.450908	-92.608391	314.520509	572.325918	-120.117981	113.680009	469.386121	-96.997662	61.099572	520.556652	-143.328498	125.156205	231.191234	-154.896629	74.163648	317.427630	-85.280676	NaN	NaN	NaN	257.625555	1056.764733	-446.902610	329.635089	1011.807978	-459.697783	358.703558	1035.374148	-453.123843	369.604691	931.608293	-471.716694	455.405029	806.258332	-455.935416	470.570964	791.007532	-346.400243	380.593579	696.871208	-465.616640	368.392607	610.959926	-454.610148	312.667925	542.584279	-444.330031	401.678693	599.824431	-438.379388	271.121525	430.978403	-429.751298	206.483724	401.515701	-384.052512	487.373633	322.056407	-395.621637	375.295439	314.121157	-457.377548	-167.375722	901.393097	-268.805865	-43.281506	85.138182	-474.036879	-51.314365	80.315382	-76.486484	
1754	8.7700	766.954590	1236.083551	-176.466713	728.148796	1236.361016	-469.810128	747.479808	1317.583717	-329.118069	671.750413	1163.838463	-315.007029	612.975520	1103.656450	35.104064	693.319048	912.799366	-58.153796	477.427092	1070.082921	-549.690641	671.283371	937.242412	-462.870977	162.588463	1256.212512	-213.212037	270.206922	1252.260665	-386.683742	334.040877	1225.602728	-110.543325	307.602841	1186.896975	-360.632088	349.240294	1158.823295	-147.222877	216.175358	1288.840957	-179.685675	200.365003	1302.837295	-263.028408	266.929559	1107.691791	-78.882771	180.833120	1173.657712	-405.865868	327.036815	1008.105796	-81.365445	386.904002	941.912204	-86.594355	403.107993	855.829941	-88.333592	415.731346	957.870745	-102.671051	451.186181	717.058566	-114.195441	354.384878	667.993776	-82.613621	299.921011	598.768470	-92.400554	221.550670	563.051364	-92.789021	318.528311	577.926994	-119.834307	115.672531	479.683214	-96.991517	63.670943	531.153468	-143.292534	125.648409	241.436072	-154.894064	75.186212	328.037873	-85.252575	NaN	NaN	NaN	256.745522	1051.360242	-446.429666	327.887807	1004.990673	-458.456434	357.567590	1026.820019	-449.447034	366.416916	923.839096	-469.340811	450.263373	798.286999	-452.600579	464.076738	782.642765	-343.191491	376.026652	689.194246	-463.397868	364.872082	603.020321	-453.276294	310.036049	533.860743	-444.168785	398.434854	591.885576	-437.326500	270.072236	420.114244	-429.658050	205.237772	391.348758	-385.391725	486.460067	310.845747	-395.363024	374.451358	303.293945	-457.290677	-167.420372	901.393197	-269.327803	-43.294986	85.114351	-474.051691	-51.312994	80.311534	-76.487137	
1755	8.7750	767.132036	1237.034267	-175.304074	729.579538	1234.977057	-469.021766	747.681297	1317.525730	-328.842434	672.730997	1163.513160	-313.880836	612.097809	1103.695986	34.555851	693.078937	912.696048	-58.371295	478.166077	1070.055616	-551.083898	671.047905	937.189358	-463.224739	162.095436	1254.308159	-214.885978	270.985325	1248.753454	-388.325080	332.992615	1225.420381	-111.578994	308.355770	1183.670550	-361.309854	348.448378	1158.469364	-147.397809	215.107306	1287.528364	-181.808018	199.929020	1300.334950	-265.443066	262.529607	1106.244388	-82.527415	181.603643	1169.614633	-407.041095	328.328007	1008.594176	-80.052901	390.010835	943.768515	-84.471572	407.965772	857.907726	-87.439269	418.208515	960.541318	-100.469834	457.628098	720.546280	-113.412098	359.827860	673.316363	-82.306466	303.980097	605.315332	-92.263693	224.914987	571.180365	-93.061860	322.520023	583.831017	-119.266572	117.978554	490.140720	-97.123361	66.256941	541.858909	-143.414708	127.162461	251.993734	-154.794978	76.916154	338.795741	-85.237380	NaN	NaN	NaN	256.055554	1045.669094	-445.842307	326.357966	997.969526	-457.162330	356.412027	1019.336654	-448.530453	363.372576	915.969966	-466.966477	445.178205	790.324784	-448.995453	458.673257	774.607683	-338.987368	371.384129	681.474414	-460.951686	361.169678	595.038254	-451.642672	307.140736	525.174125	-443.726608	394.782229	584.051140	-435.741978	268.431619	409.588273	-429.122585	203.946734	379.832384	-384.288303	485.010056	299.498980	-395.165460	373.010010	292.672193	-457.173630	-167.462207	901.223887	-269.567273	-43.320177	85.090493	-474.057912	-51.330586	80.301446	-76.505696	
1756	8.7800	767.214157	1238.111100	-173.922796	731.157636	1233.666637	-468.019508	747.881126	1317.472675	-328.264167	673.785869	1163.253376	-312.648484	610.773326	1103.540592	33.939361	692.766432	912.685948	-58.631065	479.291051	1070.433798	-552.770358	670.855947	937.111578	-463.730740	162.134833	1252.495937	-218.592816	271.934569	1245.284656	-390.152939	331.846808	1225.217483	-112.719280	309.427659	1180.461034	-362.274395	347.851477	1158.232676	-147.400118	213.960865	1286.136090	-184.189161	199.490756	1297.797322	-268.131485	262.723073	1106.348038	-81.891780	182.612274	1165.501994	-408.312436	329.501813	1009.376856	-78.650496	392.346640	946.043486	-83.347574	412.986838	860.311305	-86.302397	420.721040	963.309613	-98.945485	463.941875	724.170359	-112.730289	364.914526	679.246035	-82.050997	307.744820	612.373740	-92.423765	228.427276	579.551416	-93.227524	326.482944	590.090323	-118.562968	120.377709	500.656245	-97.236320	68.742309	552.411813	-143.568114	129.476751	262.615557	-154.733577	79.274044	349.437987	-85.294275	NaN	NaN	NaN	255.716041	1039.976629	-445.608589	325.087758	990.722963	-455.868826	355.475921	1011.392100	-446.852242	360.506949	907.862141	-464.357506	439.743939	781.649742	-444.737028	448.181159	764.824921	-337.349475	366.690838	673.251635	-458.338641	357.277825	586.560395	-449.506313	303.942452	516.061403	-442.613226	390.859760	575.882393	-433.633267	266.215012	399.273420	-428.404558	202.026137	369.293923	-383.887525	482.910869	288.258669	-394.964378	370.892245	282.329162	-456.949317	-167.613119	901.200619	-269.659626	-43.338587	85.073099	-474.069374	-51.343457	80.292297	-76.523900	
